<svg width="258" height="210" viewBox="0 0 258 210" fill="none" xmlns="http://www.w3.org/2000/svg">
<path d="M62.4684 95.3299C62.4684 95.3299 58.1486 54.216 87.5535 48.6797C116.958 43.1434 122.424 47.787 142.905 33.7295C163.386 19.6719 228.095 61.1659 214.995 119.531C213.45 126.453 211.49 133.275 209.124 139.961" stroke="#D7E8F0" stroke-width="3.7" stroke-miterlimit="10"/>
<path d="M189.285 68.1128H178.59V207.785H189.285V68.1128Z" stroke="#D7E8F0" stroke-width="3.7" stroke-miterlimit="10"/>
<path d="M93.5995 175.609V68.1128H178.59V207.787H164.27V164.891C164.267 163.171 163.581 161.524 162.363 160.309C161.146 159.095 159.496 158.413 157.777 158.414H115.029C113.31 158.414 111.661 159.096 110.444 160.31C109.226 161.524 108.54 163.171 108.536 164.891V207.787H94.5992M93.5995 191.618V184.338M103.796 140.82C103.706 140.819 103.618 140.801 103.535 140.766C103.452 140.731 103.377 140.681 103.314 140.617C103.251 140.553 103.201 140.477 103.168 140.394C103.134 140.311 103.117 140.222 103.118 140.132V134.636C103.118 134.455 103.189 134.283 103.316 134.156C103.444 134.028 103.616 133.957 103.796 133.957H114.88C114.97 133.956 115.059 133.973 115.142 134.007C115.225 134.041 115.301 134.09 115.365 134.154C115.428 134.217 115.479 134.292 115.514 134.374C115.549 134.457 115.567 134.546 115.567 134.636V140.132C115.568 140.223 115.55 140.312 115.516 140.396C115.481 140.479 115.431 140.555 115.367 140.619C115.303 140.683 115.227 140.733 115.143 140.768C115.06 140.802 114.971 140.82 114.88 140.82H103.796ZM123.28 149.741C123.279 149.922 123.206 150.095 123.077 150.223C122.948 150.35 122.775 150.422 122.593 150.422H111.509C111.328 150.422 111.154 150.35 111.026 150.223C110.897 150.095 110.824 149.922 110.822 149.741V144.238C110.825 144.057 110.898 143.885 111.026 143.758C111.155 143.631 111.329 143.56 111.509 143.56H122.593C122.774 143.56 122.948 143.631 123.076 143.758C123.205 143.885 123.278 144.057 123.28 144.238V149.741ZM117.738 140.132V134.636C117.739 134.546 117.757 134.457 117.792 134.374C117.826 134.292 117.877 134.217 117.941 134.154C118.005 134.09 118.081 134.041 118.164 134.007C118.247 133.973 118.336 133.956 118.426 133.957H129.509C129.69 133.957 129.864 134.028 129.992 134.155C130.121 134.282 130.194 134.455 130.197 134.636V140.132C130.196 140.314 130.123 140.489 129.994 140.617C129.866 140.746 129.691 140.819 129.509 140.82H118.423C118.333 140.82 118.243 140.802 118.16 140.767C118.077 140.733 118.001 140.682 117.938 140.618C117.874 140.554 117.824 140.479 117.79 140.395C117.756 140.312 117.738 140.223 117.738 140.132ZM137.85 149.741C137.851 149.83 137.834 149.918 137.799 150.001C137.766 150.084 137.716 150.159 137.653 150.222C137.59 150.286 137.515 150.336 137.432 150.37C137.35 150.404 137.261 150.422 137.172 150.422H126.077C125.987 150.422 125.899 150.404 125.816 150.37C125.734 150.336 125.659 150.286 125.596 150.222C125.533 150.159 125.483 150.084 125.449 150.001C125.415 149.918 125.398 149.83 125.398 149.741V144.238C125.398 144.058 125.47 143.886 125.597 143.758C125.724 143.631 125.897 143.56 126.077 143.56H137.169C137.349 143.56 137.522 143.631 137.649 143.758C137.776 143.886 137.848 144.058 137.848 144.238L137.85 149.741ZM144.812 140.132C144.812 140.223 144.794 140.312 144.76 140.396C144.726 140.479 144.675 140.555 144.611 140.619C144.547 140.683 144.471 140.733 144.388 140.768C144.304 140.802 144.215 140.82 144.125 140.82H133.041C132.951 140.819 132.862 140.801 132.779 140.766C132.696 140.732 132.621 140.681 132.558 140.617C132.494 140.553 132.444 140.478 132.41 140.394C132.376 140.311 132.359 140.222 132.359 140.132V134.636C132.359 134.546 132.377 134.458 132.411 134.375C132.445 134.293 132.496 134.218 132.559 134.155C132.622 134.092 132.697 134.042 132.78 134.008C132.863 133.974 132.951 133.956 133.041 133.957H144.122C144.212 133.956 144.301 133.973 144.384 134.007C144.467 134.041 144.542 134.09 144.606 134.154C144.67 134.217 144.721 134.292 144.756 134.374C144.791 134.457 144.809 134.546 144.809 134.636L144.812 140.132ZM159.43 140.132C159.43 140.222 159.413 140.311 159.38 140.394C159.346 140.477 159.296 140.553 159.233 140.617C159.17 140.681 159.095 140.731 159.012 140.766C158.929 140.801 158.841 140.819 158.751 140.82H147.664C147.574 140.82 147.484 140.802 147.401 140.768C147.317 140.733 147.242 140.683 147.178 140.619C147.114 140.555 147.063 140.479 147.029 140.396C146.994 140.312 146.977 140.223 146.977 140.132V134.636C146.977 134.546 146.996 134.457 147.03 134.374C147.065 134.292 147.116 134.217 147.18 134.154C147.244 134.09 147.319 134.041 147.402 134.007C147.485 133.973 147.574 133.956 147.664 133.957H158.748C158.928 133.957 159.101 134.028 159.228 134.156C159.355 134.283 159.427 134.455 159.427 134.636L159.43 140.132ZM169.691 119.494C169.693 120.346 169.528 121.19 169.203 121.978C168.878 122.765 168.402 123.481 167.8 124.085C167.198 124.688 166.484 125.166 165.697 125.493C164.91 125.82 164.066 125.988 163.214 125.988H109.102C107.38 125.987 105.728 125.302 104.511 124.085C103.293 122.867 102.609 121.216 102.608 119.494V96.5968C102.608 94.8746 103.292 93.2227 104.51 92.005C105.728 90.7871 107.379 90.1031 109.102 90.1031H163.203C164.055 90.1031 164.899 90.2712 165.686 90.5976C166.472 90.9242 167.187 91.4027 167.789 92.0059C168.39 92.6093 168.867 93.3252 169.192 94.1131C169.516 94.9007 169.682 95.7447 169.68 96.5968L169.691 119.494ZM168.742 82.5195C168.444 82.8214 168.089 83.0608 167.697 83.2238C167.306 83.3866 166.885 83.4699 166.461 83.4685H106.348C105.491 83.4677 104.67 83.1272 104.064 82.5215C103.459 81.9161 103.119 81.0949 103.118 80.2386C103.121 79.3828 103.462 78.563 104.067 77.9579C104.672 77.3527 105.492 77.0114 106.348 77.0086H166.456C166.88 77.008 167.3 77.0914 167.692 77.2536C168.084 77.4158 168.44 77.6537 168.74 77.9536C169.04 78.2538 169.278 78.6101 169.441 79.002C169.603 79.394 169.686 79.8142 169.686 80.2386C169.687 80.6624 169.604 81.0825 169.442 81.4742C169.28 81.8659 169.041 82.2213 168.739 82.5195H168.742Z" stroke="#D7E8F0" stroke-width="3.7" stroke-miterlimit="10"/>
<path d="M114.88 140.82H103.796C103.706 140.819 103.618 140.801 103.535 140.766C103.452 140.732 103.377 140.681 103.314 140.617C103.251 140.553 103.201 140.477 103.168 140.394C103.134 140.311 103.117 140.222 103.118 140.132V134.636C103.118 134.456 103.189 134.283 103.316 134.156C103.444 134.028 103.616 133.957 103.796 133.957H114.88C114.97 133.956 115.059 133.973 115.142 134.007C115.225 134.041 115.301 134.09 115.365 134.153C115.428 134.217 115.479 134.292 115.514 134.374C115.549 134.457 115.567 134.546 115.567 134.636V140.132C115.568 140.223 115.55 140.312 115.516 140.396C115.481 140.479 115.431 140.555 115.367 140.619C115.303 140.683 115.227 140.734 115.143 140.768C115.06 140.802 114.971 140.82 114.88 140.82Z" stroke="#D7E8F0" stroke-width="3.7" stroke-miterlimit="10"/>
<path d="M111.509 143.56H122.593C122.774 143.56 122.948 143.631 123.076 143.758C123.205 143.885 123.278 144.058 123.28 144.239V149.741C123.279 149.922 123.206 150.096 123.077 150.223C122.948 150.351 122.775 150.423 122.593 150.423H111.509C111.328 150.423 111.154 150.351 111.026 150.223C110.897 150.096 110.824 149.922 110.822 149.741V144.239C110.825 144.058 110.898 143.885 111.026 143.758C111.155 143.631 111.329 143.56 111.509 143.56Z" stroke="#D7E8F0" stroke-width="3.7" stroke-miterlimit="10"/>
<path d="M130.194 134.636V140.132C130.193 140.314 130.12 140.489 129.991 140.617C129.863 140.746 129.688 140.819 129.507 140.82H118.423C118.332 140.82 118.243 140.802 118.159 140.768C118.076 140.734 118 140.683 117.936 140.619C117.872 140.555 117.822 140.479 117.787 140.396C117.753 140.312 117.735 140.223 117.736 140.132V134.636C117.736 134.546 117.754 134.457 117.789 134.374C117.823 134.292 117.874 134.217 117.938 134.153C118.002 134.09 118.078 134.041 118.161 134.007C118.244 133.973 118.333 133.956 118.423 133.957H129.507C129.687 133.957 129.861 134.028 129.99 134.155C130.118 134.282 130.191 134.455 130.194 134.636Z" stroke="#D7E8F0" stroke-width="3.7" stroke-miterlimit="10"/>
<path d="M137.169 143.56H126.077C125.702 143.56 125.398 143.864 125.398 144.239V149.744C125.398 150.119 125.702 150.423 126.077 150.423H137.169C137.544 150.423 137.848 150.119 137.848 149.744V144.239C137.848 143.864 137.544 143.56 137.169 143.56Z" stroke="#D7E8F0" stroke-width="3.7" stroke-miterlimit="10"/>
<path d="M133.041 140.82C132.951 140.819 132.862 140.801 132.779 140.766C132.696 140.732 132.621 140.681 132.558 140.617C132.494 140.553 132.444 140.478 132.41 140.395C132.376 140.311 132.359 140.222 132.359 140.132V134.636C132.359 134.546 132.377 134.458 132.411 134.375C132.445 134.293 132.496 134.218 132.559 134.155C132.622 134.092 132.697 134.042 132.78 134.008C132.863 133.974 132.951 133.957 133.041 133.957H144.122C144.212 133.956 144.301 133.973 144.384 134.007C144.467 134.041 144.542 134.09 144.606 134.153C144.67 134.217 144.721 134.292 144.756 134.374C144.79 134.457 144.809 134.546 144.809 134.636V140.132C144.809 140.223 144.792 140.312 144.757 140.396C144.723 140.479 144.672 140.555 144.608 140.619C144.544 140.683 144.469 140.734 144.385 140.768C144.302 140.802 144.212 140.82 144.122 140.82H133.041Z" stroke="#D7E8F0" stroke-width="3.7" stroke-miterlimit="10"/>
<path d="M147.664 140.82C147.574 140.82 147.484 140.802 147.401 140.768C147.317 140.734 147.242 140.683 147.178 140.619C147.114 140.555 147.063 140.479 147.029 140.396C146.994 140.312 146.977 140.223 146.977 140.132V134.636C146.977 134.546 146.996 134.457 147.03 134.374C147.065 134.292 147.116 134.217 147.18 134.153C147.244 134.09 147.319 134.041 147.402 134.007C147.485 133.973 147.574 133.956 147.664 133.957H158.748C158.928 133.957 159.101 134.028 159.228 134.156C159.355 134.283 159.427 134.456 159.427 134.636V140.132C159.428 140.222 159.41 140.311 159.377 140.394C159.343 140.477 159.293 140.553 159.23 140.617C159.167 140.681 159.092 140.732 159.009 140.766C158.927 140.801 158.838 140.819 158.748 140.82H147.664Z" stroke="#D7E8F0" stroke-width="3.7" stroke-miterlimit="10"/>
<path d="M164.27 164.892V207.788H108.536V164.892C108.54 163.172 109.226 161.525 110.444 160.31C111.661 159.096 113.31 158.415 115.029 158.415H157.777C159.496 158.414 161.146 159.095 162.363 160.31C163.581 161.524 164.267 163.172 164.27 164.892Z" stroke="#D7E8F0" stroke-width="3.7" stroke-miterlimit="10"/>
<path d="M103.118 80.2386C103.121 79.3828 103.462 78.5627 104.067 77.9579C104.672 77.3527 105.492 77.0114 106.348 77.0086H166.456C166.88 77.008 167.3 77.0914 167.692 77.2536C168.084 77.4158 168.44 77.6537 168.74 77.9536C169.04 78.2535 169.278 78.6098 169.441 79.002C169.603 79.394 169.686 79.8142 169.686 80.2386C169.683 81.0941 169.341 81.9141 168.736 82.519C168.131 83.1241 167.311 83.4654 166.456 83.4685H106.348C105.491 83.4677 104.67 83.1272 104.065 82.5215C103.459 81.9161 103.118 81.0949 103.118 80.2386Z" stroke="#D7E8F0" stroke-width="3.7" stroke-miterlimit="10"/>
<path d="M132.911 99.7989V116.321C132.912 116.921 132.794 117.516 132.565 118.071C132.336 118.625 132 119.13 131.576 119.555C131.151 119.98 130.648 120.317 130.093 120.547C129.538 120.777 128.944 120.896 128.344 120.897H112.323C111.111 120.895 109.949 120.412 109.092 119.554C108.236 118.696 107.755 117.533 107.756 116.321V99.7989C107.755 99.1988 107.873 98.6044 108.103 98.0496C108.332 97.4951 108.668 96.9911 109.092 96.5664C109.516 96.1418 110.02 95.8047 110.574 95.5746C111.129 95.3445 111.723 95.226 112.323 95.2257H128.344C128.944 95.2257 129.538 95.344 130.093 95.574C130.647 95.8038 131.151 96.1406 131.575 96.5656C132 96.9902 132.336 97.4943 132.565 98.0493C132.794 98.6041 132.912 99.1985 132.911 99.7989Z" stroke="#D7E8F0" stroke-width="3.7" stroke-miterlimit="10"/>
<path d="M164.369 99.7786V116.342C164.37 116.943 164.252 117.538 164.023 118.093C163.794 118.647 163.457 119.152 163.033 119.577C162.609 120.002 162.105 120.339 161.551 120.569C160.996 120.799 160.402 120.918 159.801 120.918H143.75C143.149 120.918 142.555 120.799 142 120.569C141.445 120.339 140.942 120.002 140.517 119.577C140.093 119.152 139.756 118.648 139.527 118.093C139.297 117.538 139.179 116.943 139.18 116.342V99.7786C139.179 99.178 139.297 98.5832 139.527 98.0282C139.756 97.4734 140.093 96.9691 140.517 96.5442C140.942 96.1192 141.445 95.7819 142 95.5518C142.555 95.3217 143.149 95.2029 143.75 95.2026H159.801C160.402 95.2029 160.996 95.3217 161.551 95.5518C162.105 95.7821 162.609 96.1192 163.033 96.5442C163.457 96.9691 163.794 97.4734 164.023 98.0285C164.252 98.5835 164.37 99.1783 164.369 99.7786Z" stroke="#D7E8F0" stroke-width="3.7" stroke-miterlimit="10"/>
<path d="M163.203 90.1031H109.102C107.379 90.1031 105.728 90.7871 104.51 92.005C103.292 93.2227 102.608 94.8746 102.608 96.5968V119.494C102.609 121.216 103.293 122.867 104.511 124.085C105.728 125.302 107.38 125.987 109.102 125.988H163.203C164.055 125.988 164.899 125.82 165.686 125.493C166.472 125.166 167.187 124.688 167.789 124.085C168.39 123.481 168.867 122.765 169.192 121.978C169.516 121.19 169.682 120.346 169.68 119.494V96.5968C169.682 95.7447 169.516 94.9007 169.192 94.1128C168.867 93.3252 168.39 92.6091 167.789 92.0059C167.187 91.4027 166.472 90.9242 165.686 90.5976C164.899 90.2709 164.055 90.1031 163.203 90.1031ZM132.911 116.32C132.912 116.921 132.794 117.515 132.565 118.07C132.336 118.625 132 119.129 131.576 119.554C131.151 119.979 130.648 120.317 130.093 120.547C129.538 120.777 128.944 120.896 128.344 120.896H112.323C111.111 120.895 109.949 120.412 109.092 119.554C108.235 118.696 107.755 117.533 107.756 116.32V99.7986C107.755 99.1983 107.873 98.6038 108.103 98.0493C108.332 97.4946 108.668 96.9905 109.092 96.5658C109.517 96.1412 110.02 95.8044 110.574 95.5743C111.129 95.3443 111.723 95.2257 112.323 95.2254H128.344C128.944 95.2254 129.538 95.3437 130.093 95.5735C130.647 95.8033 131.151 96.1403 131.575 96.565C132 96.9899 132.336 97.494 132.565 98.0488C132.794 98.6035 132.912 99.1983 132.911 99.7986V116.32ZM164.369 116.343C164.37 116.943 164.252 117.538 164.023 118.093C163.794 118.648 163.457 119.152 163.033 119.577C162.609 120.002 162.105 120.339 161.551 120.569C160.996 120.8 160.402 120.918 159.801 120.919H143.75C143.149 120.918 142.555 120.8 142 120.569C141.445 120.339 140.942 120.002 140.517 119.577C140.093 119.152 139.756 118.648 139.527 118.093C139.297 117.538 139.179 116.943 139.18 116.343V99.7789C139.179 99.1783 139.297 98.5835 139.527 98.0285C139.756 97.4735 140.093 96.9691 140.517 96.5442C140.942 96.1192 141.445 95.7821 142 95.5521C142.555 95.3217 143.149 95.2032 143.75 95.2029H159.801C160.402 95.2032 160.996 95.3217 161.551 95.5521C162.105 95.7821 162.609 96.1195 163.033 96.5444C163.457 96.9694 163.794 97.4737 164.023 98.0288C164.252 98.5838 164.37 99.1783 164.369 99.7789V116.343Z" stroke="#D7E8F0" stroke-width="3.7" stroke-miterlimit="10"/>
<path d="M132.911 99.7989V116.321C132.912 116.921 132.794 117.516 132.565 118.071C132.336 118.625 132 119.13 131.576 119.555C131.151 119.98 130.648 120.317 130.093 120.547C129.538 120.777 128.944 120.896 128.344 120.897H112.323C111.111 120.895 109.949 120.412 109.092 119.554C108.236 118.696 107.755 117.533 107.756 116.321V99.7989C107.755 99.1988 107.873 98.6044 108.103 98.0496C108.332 97.4951 108.668 96.9911 109.092 96.5664C109.516 96.1418 110.02 95.8047 110.574 95.5746C111.129 95.3445 111.723 95.226 112.323 95.2257H128.344C128.944 95.2257 129.538 95.344 130.093 95.574C130.647 95.8038 131.151 96.1406 131.575 96.5656C132 96.9902 132.336 97.4943 132.565 98.0493C132.794 98.6041 132.912 99.1985 132.911 99.7989Z" stroke="#D7E8F0" stroke-width="3.7" stroke-miterlimit="10"/>
<path d="M164.369 99.7786V116.342C164.37 116.943 164.252 117.538 164.023 118.093C163.794 118.647 163.457 119.152 163.033 119.577C162.609 120.002 162.105 120.339 161.551 120.569C160.996 120.799 160.402 120.918 159.801 120.918H143.75C143.149 120.918 142.555 120.799 142 120.569C141.445 120.339 140.942 120.002 140.517 119.577C140.093 119.152 139.756 118.648 139.527 118.093C139.297 117.538 139.179 116.943 139.18 116.342V99.7786C139.179 99.178 139.297 98.5832 139.527 98.0282C139.756 97.4734 140.093 96.9691 140.517 96.5442C140.942 96.1192 141.445 95.7819 142 95.5518C142.555 95.3217 143.149 95.2029 143.75 95.2026H159.801C160.402 95.2029 160.996 95.3217 161.551 95.5518C162.105 95.7821 162.609 96.1192 163.033 96.5442C163.457 96.9691 163.794 97.4734 164.023 98.0285C164.252 98.5835 164.37 99.1783 164.369 99.7786Z" stroke="#D7E8F0" stroke-width="3.7" stroke-miterlimit="10"/>
<path d="M164.369 99.7786V116.342C164.37 116.943 164.252 117.538 164.023 118.093C163.794 118.647 163.457 119.152 163.033 119.577C162.609 120.002 162.105 120.339 161.551 120.569C160.996 120.799 160.402 120.918 159.801 120.918H143.75C143.149 120.918 142.555 120.799 142 120.569C141.445 120.339 140.942 120.002 140.517 119.577C140.093 119.152 139.756 118.648 139.527 118.093C139.297 117.538 139.179 116.943 139.18 116.342V99.7786C139.179 99.178 139.297 98.5832 139.527 98.0282C139.756 97.4734 140.093 96.9691 140.517 96.5442C140.942 96.1192 141.445 95.7819 142 95.5518C142.555 95.3217 143.149 95.2029 143.75 95.2026H159.801C160.402 95.2029 160.996 95.3217 161.551 95.5518C162.105 95.7821 162.609 96.1192 163.033 96.5442C163.457 96.9691 163.794 97.4734 164.023 98.0285C164.252 98.5835 164.37 99.1783 164.369 99.7786Z" stroke="#D7E8F0" stroke-width="3.7" stroke-miterlimit="10"/>
<path d="M132.911 99.7989V116.321C132.912 116.921 132.794 117.516 132.565 118.071C132.336 118.625 132 119.13 131.576 119.555C131.151 119.98 130.648 120.317 130.093 120.547C129.538 120.777 128.944 120.896 128.344 120.897H112.323C111.111 120.895 109.949 120.412 109.092 119.554C108.236 118.696 107.755 117.533 107.756 116.321V99.7989C107.755 99.1988 107.873 98.6044 108.103 98.0496C108.332 97.4951 108.668 96.9911 109.092 96.5664C109.516 96.1418 110.02 95.8047 110.574 95.5746C111.129 95.3445 111.723 95.226 112.323 95.2257H128.344C128.944 95.2257 129.538 95.344 130.093 95.574C130.647 95.8038 131.151 96.1406 131.575 96.5656C132 96.9902 132.336 97.4943 132.565 98.0493C132.794 98.6041 132.912 99.1985 132.911 99.7989Z" stroke="#D7E8F0" stroke-width="3.7" stroke-miterlimit="10"/>
<path d="M164.27 164.892V207.788H108.536V164.892C108.54 163.172 109.226 161.525 110.444 160.31C111.661 159.096 113.31 158.415 115.029 158.415H157.777C159.496 158.414 161.146 159.095 162.363 160.31C163.581 161.524 164.267 163.172 164.27 164.892Z" stroke="#D7E8F0" stroke-width="3.7" stroke-miterlimit="10"/>
<path d="M115.567 134.636V140.132C115.568 140.223 115.55 140.312 115.516 140.396C115.481 140.479 115.431 140.555 115.367 140.619C115.303 140.683 115.227 140.734 115.143 140.768C115.06 140.802 114.971 140.82 114.88 140.82H103.796C103.706 140.819 103.618 140.801 103.535 140.766C103.452 140.732 103.377 140.681 103.314 140.617C103.251 140.553 103.201 140.477 103.168 140.394C103.134 140.311 103.117 140.222 103.118 140.132V134.636C103.118 134.456 103.189 134.283 103.316 134.156C103.444 134.028 103.616 133.957 103.796 133.957H114.88C114.97 133.956 115.059 133.973 115.142 134.007C115.225 134.041 115.301 134.09 115.365 134.153C115.428 134.217 115.479 134.292 115.514 134.374C115.549 134.457 115.567 134.546 115.567 134.636Z" stroke="#D7E8F0" stroke-width="3.7" stroke-miterlimit="10"/>
<path d="M130.194 134.636V140.132C130.193 140.314 130.12 140.489 129.991 140.617C129.863 140.746 129.688 140.819 129.507 140.82H118.423C118.332 140.82 118.243 140.802 118.159 140.768C118.076 140.734 118 140.683 117.936 140.619C117.872 140.555 117.822 140.479 117.787 140.396C117.753 140.312 117.735 140.223 117.736 140.132V134.636C117.736 134.546 117.754 134.457 117.789 134.374C117.823 134.292 117.874 134.217 117.938 134.153C118.002 134.09 118.078 134.041 118.161 134.007C118.244 133.973 118.333 133.956 118.423 133.957H129.507C129.687 133.957 129.861 134.028 129.99 134.155C130.118 134.282 130.191 134.455 130.194 134.636Z" stroke="#D7E8F0" stroke-width="3.7" stroke-miterlimit="10"/>
<path d="M144.809 134.636V140.132C144.809 140.223 144.792 140.312 144.757 140.396C144.723 140.479 144.672 140.555 144.608 140.619C144.544 140.683 144.469 140.734 144.385 140.768C144.302 140.802 144.212 140.82 144.122 140.82H133.041C132.951 140.819 132.862 140.801 132.779 140.766C132.696 140.732 132.621 140.681 132.558 140.617C132.494 140.553 132.444 140.478 132.41 140.395C132.376 140.311 132.359 140.222 132.359 140.132V134.636C132.359 134.546 132.377 134.458 132.411 134.375C132.445 134.293 132.496 134.218 132.559 134.155C132.622 134.092 132.697 134.042 132.78 134.008C132.863 133.974 132.951 133.957 133.041 133.957H144.122C144.212 133.956 144.301 133.973 144.384 134.007C144.467 134.041 144.542 134.09 144.606 134.153C144.67 134.217 144.721 134.292 144.756 134.374C144.79 134.457 144.809 134.546 144.809 134.636Z" stroke="#D7E8F0" stroke-width="3.7" stroke-miterlimit="10"/>
<path d="M159.416 134.636V140.132C159.416 140.222 159.399 140.311 159.366 140.394C159.332 140.477 159.282 140.553 159.219 140.617C159.156 140.681 159.081 140.732 158.998 140.766C158.915 140.801 158.827 140.819 158.737 140.82H147.664C147.574 140.82 147.484 140.802 147.401 140.768C147.317 140.734 147.242 140.683 147.178 140.619C147.114 140.555 147.063 140.479 147.029 140.396C146.994 140.312 146.977 140.223 146.977 140.132V134.636C146.977 134.546 146.996 134.457 147.03 134.374C147.065 134.292 147.116 134.217 147.18 134.153C147.244 134.09 147.319 134.041 147.402 134.007C147.485 133.973 147.574 133.956 147.664 133.957H158.748C158.926 133.96 159.096 134.033 159.221 134.16C159.346 134.287 159.416 134.458 159.416 134.636Z" stroke="#D7E8F0" stroke-width="3.7" stroke-miterlimit="10"/>
<path d="M123.28 144.239V149.741C123.279 149.922 123.206 150.096 123.077 150.223C122.948 150.351 122.775 150.423 122.593 150.423H111.509C111.328 150.423 111.154 150.351 111.026 150.223C110.897 150.096 110.824 149.922 110.822 149.741V144.239C110.825 144.058 110.898 143.885 111.026 143.758C111.155 143.631 111.329 143.56 111.509 143.56H122.593C122.774 143.56 122.948 143.631 123.076 143.758C123.205 143.885 123.278 144.058 123.28 144.239Z" stroke="#D7E8F0" stroke-width="3.7" stroke-miterlimit="10"/>
<path d="M137.169 143.56H126.077C125.702 143.56 125.398 143.864 125.398 144.239V149.744C125.398 150.119 125.702 150.423 126.077 150.423H137.169C137.544 150.423 137.848 150.119 137.848 149.744V144.239C137.848 143.864 137.544 143.56 137.169 143.56Z" stroke="#D7E8F0" stroke-width="3.7" stroke-miterlimit="10"/>
<path d="M169.688 80.2386C169.686 81.0946 169.344 81.9149 168.738 82.5201C168.133 83.1253 167.312 83.4663 166.456 83.4685H106.348C105.491 83.4677 104.67 83.1272 104.065 82.5215C103.459 81.9161 103.118 81.0949 103.118 80.2386C103.121 79.3828 103.462 78.5627 104.067 77.9579C104.672 77.3527 105.492 77.0114 106.348 77.0086H166.456C166.88 77.0077 167.301 77.0908 167.693 77.2527C168.085 77.4147 168.442 77.6526 168.742 77.9528C169.042 78.2527 169.281 78.6089 169.443 79.0012C169.605 79.3935 169.689 79.8139 169.688 80.2386Z" stroke="#D7E8F0" stroke-width="3.7" stroke-miterlimit="10"/>
<path d="M157.602 163.376H115.038C114.029 163.376 113.21 164.194 113.21 165.203V165.274C113.21 166.283 114.029 167.101 115.038 167.101H157.602C158.611 167.101 159.43 166.283 159.43 165.274V165.203C159.43 164.194 158.611 163.376 157.602 163.376Z" stroke="#D7E8F0" stroke-width="3.7" stroke-miterlimit="10"/>
<path d="M157.602 171.064H115.038C114.029 171.064 113.21 171.882 113.21 172.891V172.962C113.21 173.971 114.029 174.789 115.038 174.789H157.602C158.611 174.789 159.43 173.971 159.43 172.962V172.891C159.43 171.882 158.611 171.064 157.602 171.064Z" stroke="#D7E8F0" stroke-width="3.7" stroke-miterlimit="10"/>
<path d="M157.602 178.751H115.038C114.029 178.751 113.21 179.57 113.21 180.579V180.649C113.21 181.659 114.029 182.477 115.038 182.477H157.602C158.611 182.477 159.43 181.659 159.43 180.649V180.579C159.43 179.57 158.611 178.751 157.602 178.751Z" stroke="#D7E8F0" stroke-width="3.7" stroke-miterlimit="10"/>
<path d="M157.602 186.442H115.038C114.029 186.442 113.21 187.26 113.21 188.269V188.34C113.21 189.349 114.029 190.167 115.038 190.167H157.602C158.611 190.167 159.43 189.349 159.43 188.34V188.269C159.43 187.26 158.611 186.442 157.602 186.442Z" stroke="#D7E8F0" stroke-width="3.7" stroke-miterlimit="10"/>
<path d="M157.602 194.13H115.038C114.029 194.13 113.21 194.948 113.21 195.957V196.028C113.21 197.037 114.029 197.855 115.038 197.855H157.602C158.611 197.855 159.43 197.037 159.43 196.028V195.957C159.43 194.948 158.611 194.13 157.602 194.13Z" stroke="#D7E8F0" stroke-width="3.7" stroke-miterlimit="10"/>
<path d="M85.74 55.39H194.461C196.165 55.39 197.8 56.067 199.005 57.2722C200.21 58.4772 200.887 60.1119 200.887 61.8162V68.0114H79.3138V61.8162C79.3138 60.1119 79.9908 58.4772 81.1961 57.2722C82.401 56.067 84.0357 55.39 85.74 55.39Z" stroke="#D7E8F0" stroke-width="3.7" stroke-miterlimit="10"/>
<path d="M189.282 155.727H200.972V166.363H212.064V178.579H222.866V188.145H233.497V196.562H255.442V207.781H189.282V155.727Z" stroke="#D7E8F0" stroke-width="3.7" stroke-miterlimit="10"/>
<path d="M191.487 132.177H201.048H201.338L212.081 142.923L222.911 153.751L233.499 164.339L238.506 169.346" stroke="#D7E8F0" stroke-width="3.7" stroke-miterlimit="10"/>
<path d="M201.048 166.364V132.177" stroke="#D7E8F0" stroke-width="3.7" stroke-miterlimit="10"/>
<path d="M233.499 188.149V164.339" stroke="#D7E8F0" stroke-width="3.7" stroke-miterlimit="10"/>
<path d="M212.081 171.15V142.92" stroke="#D7E8F0" stroke-width="3.7" stroke-miterlimit="10"/>
<path d="M222.866 153.75V179.514" stroke="#D7E8F0" stroke-width="3.7" stroke-miterlimit="10"/>
<path d="M93.5573 184.4V191.618" stroke="#D7E8F0" stroke-width="3.7" stroke-miterlimit="10"/>
<path d="M82.862 191.618V187.18C83.3154 188.481 84.5347 189.616 86.1061 190.176C85.5964 186.459 84.5995 180.602 82.862 175.361" stroke="#D7E8F0" stroke-width="3.7" stroke-miterlimit="10"/>
<path d="M93.5573 169.946V108.05H82.862V167.163" stroke="#D7E8F0" stroke-width="3.7" stroke-miterlimit="10"/>
<path d="M82.862 187.185V191.618" stroke="#D7E8F0" stroke-width="3.7" stroke-miterlimit="10"/>
<path d="M82.862 167.163V108.05H16.2857V207.787H81.9975H82.862" stroke="#D7E8F0" stroke-width="3.7" stroke-miterlimit="10"/>
<path d="M36.5357 122.657V161.627C36.5357 165.144 39.3863 167.994 42.9027 167.994H57.8276C61.344 167.994 64.1946 165.144 64.1946 161.627V122.657C64.1946 119.14 61.344 116.29 57.8276 116.29H42.9027C39.3863 116.29 36.5357 119.14 36.5357 122.657Z" stroke="#D7E8F0" stroke-width="3.7" stroke-miterlimit="10"/>
<path d="M40.4697 124.876V135.329C40.4697 137.806 42.478 139.815 44.9556 139.815H55.8029C58.2804 139.815 60.2888 137.806 60.2888 135.329V124.876C60.2888 122.398 58.2804 120.39 55.8029 120.39H44.9556C42.478 120.39 40.4697 122.398 40.4697 124.876Z" stroke="#D7E8F0" stroke-width="3.7" stroke-miterlimit="10"/>
<path d="M40.4865 149.119V159.541C40.4865 162.018 42.4949 164.027 44.9725 164.027H55.786C58.2635 164.027 60.2719 162.018 60.2719 159.541V149.119C60.2719 146.641 58.2635 144.633 55.786 144.633H44.9725C42.4949 144.633 40.4865 146.641 40.4865 149.119Z" stroke="#D7E8F0" stroke-width="3.7" stroke-miterlimit="10"/>
<path d="M37.5804 173.894H26.474C26.1023 173.894 25.801 174.195 25.801 174.567V180.086C25.801 180.458 26.1023 180.759 26.474 180.759H37.5804C37.9521 180.759 38.2535 180.458 38.2535 180.086V174.567C38.2535 174.195 37.9521 173.894 37.5804 173.894Z" stroke="#D7E8F0" stroke-width="3.7" stroke-miterlimit="10"/>
<path d="M52.2012 173.894H41.0948C40.7231 173.894 40.4218 174.195 40.4218 174.567V180.086C40.4218 180.458 40.7231 180.759 41.0948 180.759H52.2012C52.5729 180.759 52.8742 180.458 52.8742 180.086V174.567C52.8742 174.195 52.5729 173.894 52.2012 173.894Z" stroke="#D7E8F0" stroke-width="3.7" stroke-miterlimit="10"/>
<path d="M66.822 173.894H55.7156C55.3439 173.894 55.0426 174.195 55.0426 174.567V180.086C55.0426 180.458 55.3439 180.759 55.7156 180.759H66.822C67.1937 180.759 67.495 180.458 67.495 180.086V174.567C67.495 174.195 67.1937 173.894 66.822 173.894Z" stroke="#D7E8F0" stroke-width="3.7" stroke-miterlimit="10"/>
<path d="M45.2907 183.499H34.1843C33.8126 183.499 33.5113 183.801 33.5113 184.172V189.692C33.5113 190.063 33.8126 190.365 34.1843 190.365H45.2907C45.6624 190.365 45.9637 190.063 45.9637 189.692V184.172C45.9637 183.801 45.6624 183.499 45.2907 183.499Z" stroke="#D7E8F0" stroke-width="3.7" stroke-miterlimit="10"/>
<path d="M59.8608 183.499H48.7544C48.3827 183.499 48.0814 183.801 48.0814 184.172V189.692C48.0814 190.063 48.3827 190.365 48.7544 190.365H59.8608C60.2325 190.365 60.5338 190.063 60.5338 189.692V184.172C60.5338 183.801 60.2325 183.499 59.8608 183.499Z" stroke="#D7E8F0" stroke-width="3.7" stroke-miterlimit="10"/>
<path d="M8.55006 95.329H93.5939V107.942H2V101.882C2.00073 100.145 2.69099 98.4788 3.91912 97.2501C5.14724 96.0215 6.81286 95.3304 8.55006 95.329Z" stroke="#D7E8F0" stroke-width="3.7" stroke-miterlimit="10"/>
<path d="M88.311 178.186C88.8939 177.713 89.5698 177.276 90.0372 176.755C91.3495 175.288 90.8454 173.413 91.6874 171.802C92.7125 169.831 95.934 168.465 99.102 168.645C98.8021 169.572 98.5963 170.527 98.4881 171.495C98.3952 172.357 98.6205 173.314 98.3727 174.151C97.97 175.491 95.8185 176.305 95.5566 177.682C95.3257 178.898 96.7506 180.036 96.5141 181.275C96.2635 182.604 94.2219 183.339 93.47 184.514C92.8561 185.471 93.1461 186.564 92.8279 187.58C92.4421 188.808 91.1073 189.892 89.3586 190.396L89.184 190.447C88.5417 189.896 87.9906 189.247 87.5507 188.524" stroke="#D7E8F0" stroke-width="3.7" stroke-miterlimit="10"/>
<path d="M97.1815 170.188C92.459 175.006 90.2372 185.163 89.3727 190.401C89.3023 190.843 89.2375 191.246 89.184 191.615" stroke="#D7E8F0" stroke-width="3.7" stroke-miterlimit="10"/>
<path d="M97.6039 194.566L95.4299 206.714C95.3697 207.055 95.1914 207.364 94.9261 207.587C94.6609 207.809 94.3258 207.931 93.9797 207.931H82.6227C82.2732 207.931 81.935 207.807 81.6689 207.58C81.4028 207.354 81.2256 207.04 81.1696 206.695L79.159 194.566H97.6039Z" stroke="#D7E8F0" stroke-width="3.7" stroke-miterlimit="10"/>
<path d="M99.668 193.212C99.6376 193.581 99.4695 193.925 99.1972 194.176C98.9252 194.427 98.5684 194.566 98.1981 194.566H78.5957C78.2288 194.566 77.8751 194.43 77.6037 194.183C77.3325 193.936 77.163 193.597 77.1286 193.231C77.1089 193.027 77.1323 192.821 77.197 192.625C77.2618 192.43 77.3668 192.251 77.5048 192.099C77.6431 191.947 77.8112 191.825 77.9993 191.742C78.1871 191.658 78.3902 191.615 78.5957 191.615H98.1868C98.3918 191.614 98.5946 191.655 98.7827 191.736C98.9708 191.817 99.1397 191.937 99.2791 192.087C99.4185 192.237 99.525 192.415 99.592 192.608C99.659 192.802 99.6849 193.007 99.668 193.212Z" stroke="#D7E8F0" stroke-width="3.7" stroke-miterlimit="10"/>
<path d="M82.862 187.18C82.8288 187.088 82.8006 186.994 82.7775 186.898C82.465 185.721 82.7438 184.446 82.1552 183.342C81.4315 181.982 79.4772 181.131 79.2294 179.588C79.0097 178.157 80.3783 176.834 80.1502 175.423C79.9024 173.832 77.8354 172.889 77.444 171.331C77.2103 170.368 77.4243 169.256 77.3398 168.256C77.2348 167.141 77.0351 166.037 76.7428 164.956C79.0801 164.795 81.4456 165.694 82.862 167.152C83.2867 167.574 83.6277 168.072 83.8673 168.62C84.6755 170.481 84.194 172.655 85.4556 174.356C86.1427 175.277 87.2832 175.964 87.8689 176.927C88.0649 177.241 88.202 177.589 88.2744 177.952C88.2772 177.979 88.282 178.005 88.2885 178.031C88.3026 178.081 88.3082 178.129 88.3166 178.172C88.5278 179.596 87.9844 181.14 88.159 182.607C88.3166 183.823 88.9756 185.043 88.5983 186.231C88.3338 187.03 87.9827 187.798 87.5507 188.52C87.2004 189.143 86.7695 189.717 86.2694 190.227C86.2131 190.213 86.1624 190.19 86.1061 190.171C85.5964 186.453 84.5995 180.596 82.862 175.356" stroke="#D7E8F0" stroke-width="3.7" stroke-miterlimit="10"/>
<path d="M86.2919 191.612C86.2412 191.178 86.1765 190.705 86.1061 190.181C85.5964 186.464 84.5995 180.607 82.862 175.366C81.7666 172.029 80.3698 168.929 78.607 166.76" stroke="#D7E8F0" stroke-width="3.7" stroke-miterlimit="10"/>
<path d="M85.4556 174.364C85.4556 174.364 85.7682 169.515 88.3842 168.039C91.0003 166.563 90.944 174.831 90.944 174.831" stroke="#D7E8F0" stroke-width="3.7" stroke-miterlimit="10"/>
<path d="M88.311 178.185C88.0156 176.345 88.1533 174.461 88.7137 172.683" stroke="#D7E8F0" stroke-width="3.7" stroke-miterlimit="10"/>
<path d="M127.713 87.4619C128.076 87.8556 128.286 88.3667 128.304 88.9023C128.322 89.4377 128.147 89.962 127.811 90.3793L121.304 101.573L121.075 103.826L119.051 124.172L115.835 156.485C115.815 156.691 115.773 156.897 115.736 157.102C115.717 157.265 115.694 157.429 115.666 157.592C115.624 157.803 115.573 158.003 115.525 158.206C115.477 158.409 115.446 158.541 115.396 158.704C115.345 158.868 115.277 159.093 115.207 159.285L115.035 159.766C114.959 159.958 114.88 160.141 114.801 160.329C114.722 160.518 114.652 160.636 114.576 160.791C114.5 160.946 114.399 161.146 114.294 161.315C114.19 161.484 114.123 161.613 114.033 161.754C113.942 161.895 113.827 162.086 113.712 162.25C113.596 162.413 113.514 162.531 113.416 162.661C113.202 162.943 112.991 163.207 112.757 163.461C112.636 163.602 112.509 163.742 112.382 163.877C112.256 164.013 112.101 164.139 111.971 164.269C111.842 164.398 111.715 164.508 111.58 164.621C111.445 164.734 111.298 164.863 111.143 164.976C110.988 165.088 110.862 165.195 110.718 165.294C110.574 165.392 110.411 165.508 110.256 165.615C110.101 165.722 109.952 165.804 109.797 165.897C109.642 165.989 109.476 166.082 109.316 166.178C109.155 166.274 108.989 166.341 108.82 166.418C108.651 166.494 108.493 166.581 108.324 166.651C108.156 166.722 107.961 166.795 107.778 166.857C107.595 166.919 107.452 166.984 107.288 167.034C106.978 167.133 106.66 167.217 106.339 167.29C106.156 167.333 105.979 167.367 105.796 167.395C105.613 167.423 105.441 167.465 105.258 167.496H105.286L107.798 172.846L110.149 172.869C109.39 172.977 108.622 173.01 107.857 172.968L111.58 180.906C112.178 182.179 112.444 183.582 112.355 184.986C112.266 186.389 111.825 187.747 111.071 188.935C110.317 190.122 109.276 191.1 108.043 191.778C106.811 192.456 105.428 192.811 104.022 192.812H99.516C99.3417 192.812 99.169 192.847 99.008 192.914C98.8469 192.982 98.7007 193.08 98.578 193.204C98.4549 193.327 98.3577 193.474 98.2916 193.635C98.2254 193.797 98.1916 193.969 98.1924 194.144V194.803C99.7303 195.324 101.033 196.375 101.868 197.767C102.704 199.16 103.017 200.804 102.753 202.406C102.489 204.009 101.664 205.465 100.426 206.516C99.1882 207.566 97.6171 208.143 95.9931 208.143C94.3691 208.143 92.7981 207.566 91.5599 206.516C90.3219 205.465 89.4971 204.009 89.233 202.406C88.9688 200.804 89.2823 199.16 90.1178 197.767C90.953 196.375 92.256 195.324 93.7938 194.803V194.144C93.7941 193.969 93.76 193.796 93.6936 193.635C93.6268 193.473 93.5291 193.326 93.4055 193.202C93.2821 193.079 93.1354 192.98 92.9741 192.913C92.8124 192.846 92.6395 192.812 92.4647 192.812H42.7478C42.5729 192.812 42.4 192.846 42.2384 192.913C42.077 192.98 41.9303 193.079 41.807 193.202C41.6834 193.326 41.5856 193.473 41.5189 193.635C41.4524 193.796 41.4184 193.969 41.4187 194.144V194.803C42.959 195.324 44.264 196.376 45.1009 197.77C45.9378 199.164 46.2524 200.811 45.9879 202.415C45.7238 204.02 44.8981 205.478 43.6585 206.531C42.4186 207.583 40.8456 208.161 39.2193 208.161C37.5931 208.161 36.0201 207.583 34.7802 206.531C33.5406 205.478 32.7149 204.02 32.4508 202.415C32.1863 200.811 32.5009 199.164 33.3378 197.77C34.1747 196.376 35.4797 195.324 37.02 194.803V194.144C37.02 193.791 36.8798 193.452 36.63 193.202C36.3802 192.952 36.0412 192.812 35.6881 192.812H27.9609C27.6052 192.811 27.258 192.705 26.9629 192.507C26.6675 192.309 26.4377 192.028 26.3023 191.699C26.1665 191.37 26.1313 191.009 26.2012 190.66C26.2707 190.311 26.4422 189.991 26.6937 189.74C26.8598 189.573 27.0572 189.441 27.2749 189.351C27.4923 189.261 27.7255 189.215 27.9609 189.216H102.402C103.342 189.215 104.266 188.977 105.09 188.525C105.913 188.073 106.61 187.421 107.115 186.628C107.62 185.836 107.917 184.929 107.98 183.991C108.042 183.054 107.867 182.116 107.471 181.264L101.07 167.451L36.9187 162.264C36.8697 162.252 36.8195 162.245 36.7694 162.241C36.4878 162.213 36.2062 162.177 35.9246 162.129C35.83 162.117 35.7359 162.1 35.643 162.078C35.3248 162.022 35.0207 161.951 34.7137 161.872L34.4518 161.796C34.1702 161.709 33.8886 161.619 33.607 161.515L33.3874 161.43C33.1311 161.332 32.8777 161.219 32.6299 161.098C32.5248 161.054 32.4223 161.004 32.3229 160.949C32.0976 160.836 31.8723 160.715 31.6527 160.58C29.8043 159.494 28.2718 157.944 27.207 156.083C26.142 154.222 25.5816 152.116 25.5814 149.972V122.164C25.5819 119.197 26.652 116.331 28.5951 114.089C30.5384 111.848 33.2246 110.383 36.1611 109.962L116.516 98.4163L124.432 87.4535C124.643 87.2302 124.898 87.0525 125.18 86.9314C125.463 86.8103 125.767 86.7484 126.074 86.7489C126.382 86.7498 126.685 86.8134 126.967 86.9362C127.249 87.0587 127.503 87.2375 127.713 87.4619Z" fill="white"/>
<path d="M219.163 182.268C213.967 171.489 203.272 152.247 188.584 140.625L187.153 114.805C188.237 114.751 189.31 114.562 190.347 114.242C191.524 114.05 192.318 113.752 192.6 113.312C192.816 112.947 192.967 112.547 193.047 112.13C193.283 111.616 193.395 111.053 193.374 110.488C193.374 110.206 193.351 109.871 193.346 109.531C193.45 106.692 193.174 102.612 192.842 97.768C192.501 90.7843 192.121 83.9695 192.112 83.9076V83.8935C192.112 83.7949 192.155 77.6757 192.439 70.9201C192.805 74.7527 194.393 77.1519 196.474 78.6247C198.727 80.4805 201.681 80.9845 204.216 80.9845C206.069 80.9806 207.913 80.7373 209.704 80.2608C212.72 79.3203 215.201 77.8193 217.043 75.6791C218.732 74.0515 220.14 71.9761 220.526 69.4248C220.877 67.3609 220.766 65.2449 220.199 63.2295C219.702 60.8855 218.372 58.8008 216.457 57.3609C216.007 56.9802 215.51 56.6586 214.978 56.4035C214.086 55.8853 213.165 55.3841 212.292 54.8096C211.114 53.9856 210.088 52.9632 209.259 51.788C208.714 50.7836 208.381 49.6771 208.282 48.5383C208.371 46.6358 208.344 44.7297 208.203 42.8303C208.203 42.4332 208.161 42.0362 208.119 41.6475C208.012 40.2874 207.913 39.3468 207.913 39.3468C206.757 36.3712 204.783 33.783 202.219 31.8816C202.061 31.7549 201.901 31.6338 201.743 31.5127C199.492 29.8693 196.878 28.7933 194.123 28.3756C193.87 28.339 193.613 28.3109 193.365 28.2912C192.552 28.1585 191.731 28.0853 190.907 28.0715C189.855 27.6308 188.951 26.8981 188.302 25.9595C187.733 24.9238 187.329 23.8055 187.105 22.645C186.787 20.747 186.759 18.4689 186.601 15.8415C186.626 13.2032 185.939 10.6068 184.613 8.32558C184.607 8.30783 184.598 8.2915 184.585 8.2777C184.019 7.32702 183.333 6.45348 182.544 5.67851C180.271 2.9864 177.106 1.30242 173.169 2.28521C173.132 2.28521 173.096 2.30774 173.054 2.32182C172.89 2.32182 172.73 2.32182 172.566 2.34998C172.562 2.34857 172.557 2.34857 172.552 2.34998C171.012 2.47811 169.519 2.94754 168.182 3.7242C167.69 4.00946 167.225 4.33922 166.794 4.70981C164.189 6.96262 162.693 10.446 162.288 13.8957C162.268 14.0365 162.26 14.1773 162.254 14.3181C161.798 14.868 161.528 15.5481 161.483 16.2611C161.438 16.9544 161.595 17.646 161.936 18.2518C162.276 18.8575 162.785 19.3517 163.4 19.6741V19.8515C163.444 21.0695 163.71 22.2694 164.186 23.3913C164.986 25.2893 166.416 27.4492 168.838 27.7955C168.925 27.7955 169.01 27.8096 169.086 27.8237L170.857 30.9833L171.282 32.8165L172.268 37.0659L172.606 36.8744C172.997 36.6547 173.386 36.4379 173.788 36.2239L174.045 36.6913C172.531 37.5564 171.087 38.5353 169.722 39.62C166.239 42.2474 161.961 46.263 158.951 51.7571C157.18 54.8321 155.926 58.1748 155.538 61.723C155.536 61.7703 155.531 61.817 155.524 61.8638C155.473 62.182 155.431 62.5002 155.397 62.8268V61.2752C155.335 61.2752 155.276 61.247 155.214 61.2414V61.2132C154.997 61.1817 154.781 61.1386 154.569 61.0837L138.338 51.4191C137.609 50.7658 137.082 49.9176 136.82 48.9748C136.37 47.1571 135.353 45.5297 133.916 44.3284C132.69 43.3735 131.245 42.7387 129.712 42.4811C129.619 42.4586 129.521 42.4445 129.431 42.4304C129.492 42.2947 129.525 42.1474 129.525 41.9981C129.526 41.8489 129.494 41.7013 129.433 41.5653C129.372 41.429 129.283 41.3074 129.171 41.2085C129.06 41.1097 128.928 41.0356 128.786 40.9914L116.789 37.2039C116.539 37.1242 116.268 37.1411 116.029 37.2509C115.791 37.361 115.602 37.5561 115.5 37.798L112.737 44.334C112.681 44.4692 112.653 44.6145 112.656 44.7609C112.659 44.9071 112.693 45.0513 112.755 45.1839C112.817 45.3165 112.906 45.4345 113.017 45.5306C113.127 45.6269 113.256 45.699 113.396 45.742L113.709 45.8406V45.8688L120.799 48.0681L120.929 48.1103C120.929 48.2511 120.929 48.3919 120.943 48.5327C120.962 49.2055 121.033 49.8757 121.154 50.5377C121.205 50.8193 121.267 51.1009 121.337 51.3825C121.38 51.5374 121.416 51.6867 121.472 51.8359L121.495 51.9147C121.537 52.0471 121.579 52.1964 121.636 52.3231C121.65 52.3757 121.666 52.4273 121.686 52.478C121.691 52.4796 121.696 52.4796 121.701 52.478C121.876 52.9333 122.097 53.3701 122.36 53.7818C122.978 54.7477 123.881 55.4976 124.945 55.9276C125.95 56.3218 127.026 56.2458 128.042 56.6485C128.825 56.9757 129.542 57.4412 130.16 58.0227L130.543 58.4395C130.337 58.7464 128.49 61.599 129.822 62.4974L129.771 62.5199L131.117 63.3647L147.633 74.2711C147.797 74.3979 147.966 74.5189 148.129 74.6372L146.941 75.9467C143.663 77.1069 139.794 78.3741 136.727 79.2527C134.888 79.7201 133.032 80.1313 131.162 80.4636C128.293 80.9592 125.367 80.9817 122.514 81.4689C120.439 81.8096 118.682 83.7442 118.29 85.9098C117.964 87.6726 117.885 89.5706 119.834 90.4773C122.064 91.5136 123.176 88.34 124.528 87.2136C126.612 85.4507 128.684 87.5543 130.853 88.7511C131.05 89.9113 131.391 91.0293 131.652 92.1698C131.721 92.5741 131.878 92.9585 132.111 93.2962C132.508 93.8059 132.925 93.8594 133.294 93.6707L133.201 93.7495C133.911 93.5617 134.626 93.3742 135.347 93.1863C136.023 93.0813 136.689 92.9202 137.338 92.7048C142.176 91.5559 147.332 90.4858 152.488 89.1904H152.508C152.75 89.1285 152.998 89.0637 153.237 89.0074C153.318 89.0048 153.398 89.0181 153.473 89.0465C153.549 89.075 153.617 89.118 153.676 89.1732C153.735 89.2287 153.782 89.2949 153.815 89.3684C153.848 89.4419 153.866 89.521 153.868 89.6016C153.84 89.9705 153.803 90.345 153.769 90.728C153.395 92.3781 152.778 96.8331 152.08 100.429C151.697 102.023 151.3 103.51 150.917 104.828C150.294 106.236 149.686 107.624 149.878 108.77C149.899 109.281 150.096 109.769 150.438 110.151C150.779 110.532 151.242 110.783 151.748 110.86L152.637 110.995C153.248 111.141 154.282 111.319 155.577 111.505C155.755 112.763 155.946 114.039 156.157 115.278L156.208 115.591C156.357 116.41 156.512 117.246 156.667 118.074V118.097V118.125L156.794 118.804L156.929 119.536L155.901 128.643L155.594 131.422L147.777 200.356L139.554 202.544L133.393 204.188C133.168 204.236 132.954 204.325 132.762 204.45C132.476 204.629 132.24 204.878 132.078 205.174C131.916 205.47 131.832 205.802 131.835 206.14C131.836 206.47 131.921 206.795 132.083 207.083C132.172 207.253 132.284 207.411 132.416 207.551C132.688 207.819 133.032 208.004 133.407 208.083C133.546 208.116 133.689 208.132 133.832 208.131H157.847L159.818 200.361L171.589 153.784L172.206 154.347C172.206 154.347 172.206 154.37 172.228 154.376V154.39L190.279 171.551L190.493 171.739L190.775 172.021L194.534 175.589L194.816 175.851L194.928 175.963C208.966 189.525 209.467 191.296 209.155 191.482H208.977L202.501 204.92C202.299 205.343 202.251 205.822 202.364 206.276C202.478 206.73 202.746 207.13 203.123 207.407L203.576 207.739C203.984 208.034 204.487 208.164 204.986 208.103C205.485 208.043 205.943 207.796 206.268 207.413L222.711 188.193C222.711 188.193 221.492 187.07 219.163 182.268ZM133.79 93.2483C133.875 93.145 133.953 93.0357 134.023 92.9216C134.027 92.9571 134.039 92.9912 134.06 93.0202L133.79 93.2483ZM147.726 75.6651C147.819 75.6228 147.909 75.5862 148.008 75.5496L148.979 75.1694L149.022 75.1892C148.605 75.344 148.171 75.5074 147.726 75.6651ZM154.319 61.0218C153.478 60.7585 152.703 60.3186 152.046 59.732L151.148 59.1942L154.476 61.0499C154.42 61.0527 154.369 61.0527 154.319 61.0387V61.0218Z" fill="white"/>
<path d="M149.886 75.3584L149.396 75.1754C149.361 75.1568 149.327 75.1359 149.295 75.1134C146.735 73.4576 144.736 71.1203 143.026 68.6366C141.224 66.0149 135.04 63.3171 133.041 60.8334C131.759 59.262 130.419 57.4542 128.456 56.6713C127.445 56.2742 126.364 56.3503 125.359 55.9504C124.294 55.5229 123.391 54.7722 122.776 53.8046C122.51 53.392 122.286 52.9533 122.109 52.4951C122.087 52.4428 122.069 52.3893 122.055 52.3346C121.989 52.1755 121.936 52.0116 121.895 51.8446C121.841 51.6926 121.802 51.5461 121.763 51.3913C121.685 51.1133 121.624 50.8312 121.579 50.5465C121.474 49.9098 121.408 49.2674 121.38 48.6231V48.5921C121.357 47.9388 121.365 47.2968 121.396 46.6688V46.6519H121.365L118.49 45.641C118.094 45.5097 117.74 45.2737 117.466 44.9581C117.192 44.6424 117.009 44.2583 116.936 43.8471C116.897 43.6179 116.904 43.3831 116.958 43.1572C117.024 42.8584 117.154 42.5777 117.339 42.3347C117.525 42.0914 117.761 41.8917 118.031 41.7492C118.281 41.6166 118.556 41.5372 118.838 41.516C119.12 41.4946 119.403 41.5318 119.67 41.6253L125.457 43.7261L126.646 44.1541L126.676 44.171C126.676 44.171 126.676 42.4082 128.366 42.4448C129.929 42.4842 135.592 42.9432 137.27 49.1356C137.532 50.077 138.059 50.9235 138.788 51.5743L152.468 59.7661C153.399 60.6089 154.565 61.1448 155.811 61.3008V63.0383C155.809 63.0397 155.808 63.0417 155.807 63.044C155.806 63.0462 155.805 63.0485 155.805 63.051C155.805 63.0532 155.806 63.0555 155.807 63.0578C155.808 63.06 155.809 63.062 155.811 63.0637V64.3281L156.898 71.9454L157.664 77.2705C156.665 77.3519 155.659 77.3158 154.668 77.1635L154.017 76.9185H154L149.886 75.3584Z" fill="white"/>
<path d="M155.631 62.9479V62.9704C155.307 65.8231 154.986 69.1347 154.732 72.7984C152.908 73.6432 151.046 74.3753 149.216 75.1047C149.181 75.0861 149.147 75.0655 149.115 75.0427C147.871 74.2258 146.729 73.2636 145.713 72.176L130.185 62.5396C131.146 62.0536 132.002 61.3839 132.706 60.5684L132.753 60.5205C135.679 57.3778 138.217 52.0724 138.532 51.4079L138.6 51.4783L152.28 59.6701C153.21 60.5123 154.377 61.0474 155.622 61.202L155.631 62.9479Z" fill="#2E2E2E"/>
<path d="M128.087 46.7839L127.775 47.6288L127.476 48.4482L127.313 48.9129L127.29 48.9833L127.259 49.0677C127.186 49.2789 127.032 49.4524 126.831 49.5501C126.629 49.6476 126.398 49.6616 126.186 49.5887L121.236 48.0681H121.213L114.1 45.8828L115.947 41.5152L116.761 39.5918C116.865 39.3499 117.055 39.1554 117.295 39.0461C117.534 38.9365 117.806 38.9205 118.057 39.0005L127.859 42.0981C127.542 42.0257 127.219 41.9795 126.893 41.9601C126.662 41.9463 126.431 41.984 126.216 42.0702C126.002 42.1564 125.809 42.289 125.651 42.4585C125.502 42.6278 125.395 42.8297 125.338 43.0477C125.281 43.2656 125.275 43.494 125.322 43.7145C125.469 44.2805 125.76 44.7987 126.167 45.2182C126.206 45.2633 126.246 45.3027 126.291 45.3478C126.655 45.7516 127.076 46.0997 127.541 46.3813C127.541 46.3813 127.555 46.3813 127.572 46.4038C127.735 46.5423 127.907 46.6693 128.087 46.7839Z" fill="#49C628"/>
<path d="M121.343 48.0683C121.343 48.2204 121.343 48.3837 121.36 48.5358C121.38 49.2097 121.452 49.8807 121.574 50.5436C121.619 50.8283 121.68 51.1105 121.757 51.3884C121.796 51.5405 121.833 51.6869 121.886 51.839C121.94 51.9911 121.996 52.1769 122.064 52.3459C122.086 52.4084 122.111 52.4695 122.14 52.5289" stroke="black" stroke-width="3.7" stroke-miterlimit="10"/>
<path d="M130.34 47.3505C130.059 47.3055 129.777 47.252 129.495 47.1816C129.214 47.1112 129.005 47.0351 128.769 46.945C128.392 46.798 128.03 46.6153 127.687 46.3987C127.687 46.3987 127.665 46.3987 127.656 46.3762C127.142 46.0619 126.679 45.6694 126.285 45.2132C125.878 44.7939 125.586 44.2754 125.44 43.7094C125.389 43.4889 125.392 43.2594 125.449 43.0403C125.506 42.8215 125.617 42.6199 125.77 42.4535C125.927 42.284 126.12 42.1516 126.335 42.0654C126.55 41.9793 126.781 41.9415 127.012 41.955C127.445 41.9891 127.875 42.0561 128.299 42.155C128.904 42.262 129.509 42.3606 130.109 42.4845C131.642 42.7458 133.087 43.3799 134.316 44.3318C135.75 45.5342 136.766 47.1599 137.22 48.9754C137.479 49.9176 138.003 50.7658 138.729 51.4197L155.803 61.5855" stroke="black" stroke-width="3.7" stroke-miterlimit="10"/>
<path d="M121.363 48.5324C121.363 48.5324 121.909 51.6047 126.181 51.5202C126.512 51.5081 126.831 51.3949 127.096 51.1961C127.361 50.997 127.558 50.7216 127.662 50.407C127.766 50.0922 127.771 49.7534 127.676 49.4361C127.581 49.1184 127.392 48.8377 127.133 48.631L127.076 48.5887" stroke="black" stroke-width="3.7" stroke-miterlimit="10"/>
<path d="M122.05 52.3208C122.05 52.3208 124.142 54.4976 126.229 53.557C128.073 52.7122 126.812 51.0592 126.812 51.0592" stroke="black" stroke-width="3.7" stroke-miterlimit="10"/>
<path d="M127.758 48.4908L127.606 48.4457" stroke="black" stroke-width="3.7" stroke-miterlimit="10"/>
<path d="M105.669 167.49C104.781 167.617 103.882 167.642 102.988 167.566L101.58 167.453L105.669 167.49Z" fill="#D7E8F0"/>
<path d="M121.495 103.84L116.243 156.499C115.968 159.251 114.775 161.83 112.857 163.822C110.938 165.814 108.406 167.103 105.666 167.482C104.778 167.609 103.879 167.635 102.985 167.558L101.577 167.445L37.3242 162.255C35.4622 162.11 33.6585 161.539 32.0526 160.586C31.2759 158.953 30.8746 157.167 30.8783 155.359V154.134L89.9105 158.921L91.3185 159.037C92.2121 159.11 93.1112 159.085 93.9994 158.961C96.7382 158.581 99.2701 157.291 101.188 155.3C103.106 153.308 104.3 150.729 104.576 147.978L108.8 105.696L121.495 103.84Z" fill="#49C628"/>
<path d="M108.795 105.665L104.571 147.947C104.294 150.698 103.101 153.277 101.182 155.269C99.2645 157.26 96.7326 158.55 93.9937 158.93C93.1056 159.054 92.2067 159.079 91.3129 159.006L89.9049 158.89L30.8727 154.103V127.545C30.8741 124.578 31.9439 121.712 33.8861 119.469C35.8286 117.227 38.5136 115.759 41.4496 115.335L108.795 105.665Z" fill="#70F570"/>
<path d="M110.569 172.871C109.68 172.998 108.78 173.024 107.885 172.947L106.477 172.835L110.569 172.871Z" fill="#D7E8F0"/>
<path d="M105.703 167.49L111.999 180.911C112.596 182.184 112.862 183.587 112.772 184.99C112.682 186.393 112.24 187.751 111.486 188.937C110.732 190.124 109.691 191.101 108.459 191.778C107.227 192.456 105.844 192.811 104.438 192.812H99.9327C99.7584 192.811 99.5855 192.846 99.4245 192.912C99.2631 192.978 99.1167 193.076 98.993 193.199C98.8697 193.322 98.7717 193.469 98.705 193.63C98.6379 193.791 98.6036 193.964 98.6036 194.138V200.683C98.6036 201.266 98.3718 201.825 97.9596 202.238C97.547 202.65 96.9875 202.882 96.4043 202.882C95.8211 202.882 95.2615 202.65 94.8493 202.238C94.4367 201.825 94.205 201.266 94.205 200.683V194.135C94.2052 193.961 94.1712 193.788 94.1044 193.627C94.0377 193.465 93.94 193.319 93.8163 193.196C93.6927 193.072 93.546 192.975 93.3846 192.908C93.2233 192.842 93.0504 192.808 92.8758 192.809H43.1618C42.9875 192.809 42.8148 192.843 42.6538 192.909C42.4927 192.976 42.3463 193.073 42.2232 193.197C42.0999 193.32 42.0021 193.466 41.9357 193.627C41.8692 193.788 41.8351 193.961 41.8354 194.135V200.68C41.8152 201.25 41.5744 201.79 41.1638 202.186C40.7532 202.582 40.2052 202.803 39.6347 202.803C39.0642 202.803 38.5162 202.582 38.1056 202.186C37.6953 201.79 37.4543 201.25 37.434 200.68V194.135C37.4343 193.961 37.4002 193.788 37.3337 193.627C37.2673 193.466 37.1696 193.32 37.0462 193.197C36.9232 193.073 36.7767 192.976 36.6156 192.909C36.4546 192.843 36.282 192.809 36.1076 192.809H28.3805C27.9153 192.791 27.4751 192.593 27.1524 192.257C26.8297 191.921 26.6495 191.474 26.6495 191.008C26.6495 190.542 26.8297 190.095 27.1524 189.759C27.4751 189.424 27.9153 189.226 28.3805 189.207H102.814C103.752 189.206 104.675 188.969 105.497 188.517C106.32 188.066 107.016 187.415 107.521 186.624C108.026 185.833 108.324 184.927 108.387 183.991C108.45 183.055 108.276 182.118 107.882 181.266L101.482 167.468" fill="#2E2E2E"/>
<path d="M102.985 167.566L37.3242 162.258C34.2358 162.009 31.3548 160.606 29.254 158.329C27.1533 156.052 25.9866 153.067 25.9869 149.969V122.164C25.9877 119.198 27.0575 116.331 29 114.09C30.9428 111.848 33.6279 110.382 36.5638 109.959L116.916 98.4134L124.838 87.445C125.05 87.2209 125.306 87.0426 125.59 86.9213C125.873 86.7999 126.179 86.7385 126.488 86.7402C126.796 86.7422 127.101 86.8075 127.384 86.932C127.666 87.0567 127.92 87.2381 128.13 87.4648C128.49 87.8598 128.698 88.3704 128.717 88.9049C128.735 89.4394 128.563 89.9631 128.231 90.3821L121.715 101.587L116.249 156.499C115.928 159.714 114.359 162.674 111.879 164.743C109.398 166.813 106.205 167.827 102.985 167.566Z" stroke="black" stroke-width="3.7" stroke-miterlimit="10"/>
<path d="M103.273 201.279C103.275 202.54 102.93 203.777 102.275 204.855C101.62 205.932 100.68 206.808 99.5591 207.385C98.4383 207.963 97.1801 208.22 95.9224 208.129C94.6648 208.038 93.4567 207.602 92.4311 206.868C91.4056 206.135 90.6021 205.133 90.1093 203.972C89.6165 202.811 89.4535 201.537 89.6379 200.29C89.8224 199.043 90.3476 197.87 91.1552 196.902C91.9628 195.934 93.0222 195.207 94.2162 194.802V200.682C94.2162 201.265 94.448 201.825 94.8602 202.237C95.2728 202.65 95.8323 202.882 96.4155 202.882C96.9987 202.882 97.5583 202.65 97.9705 202.237C98.3831 201.825 98.6148 201.265 98.6148 200.682V194.8C99.9724 195.255 101.152 196.126 101.988 197.289C102.824 198.451 103.273 199.847 103.273 201.279Z" stroke="black" stroke-width="3.7" stroke-miterlimit="10"/>
<path d="M46.4931 201.279C46.4954 202.54 46.1501 203.777 45.4948 204.853C44.8396 205.93 43.9001 206.805 42.7793 207.383C41.6589 207.96 40.4007 208.217 39.1436 208.125C37.8862 208.034 36.6787 207.597 35.6537 206.863C34.6287 206.129 33.8261 205.127 33.3339 203.967C32.8419 202.806 32.6794 201.532 32.8647 200.285C33.05 199.039 33.5755 197.867 34.3837 196.9C35.1919 195.932 36.2512 195.207 37.4452 194.802V200.682C37.4461 201.266 37.6784 201.825 38.0912 202.238C38.5041 202.65 39.0639 202.882 39.6474 202.882C40.2306 202.882 40.7901 202.65 41.2027 202.237C41.6149 201.825 41.8467 201.265 41.8467 200.682V194.8C43.2029 195.256 44.3811 196.127 45.2149 197.29C46.0487 198.453 46.4959 199.848 46.4931 201.279Z" stroke="black" stroke-width="3.7" stroke-miterlimit="10"/>
<path d="M105.703 167.49L111.999 180.911C112.596 182.184 112.862 183.587 112.772 184.99C112.682 186.393 112.24 187.751 111.486 188.937C110.732 190.124 109.691 191.101 108.459 191.778C107.227 192.456 105.844 192.811 104.438 192.812H99.9327C99.7584 192.811 99.5855 192.846 99.4245 192.912C99.2631 192.978 99.1167 193.076 98.993 193.199C98.8697 193.322 98.7717 193.469 98.705 193.63C98.6379 193.791 98.6036 193.964 98.6036 194.138V200.683C98.6036 201.266 98.3718 201.825 97.9596 202.238C97.547 202.65 96.9875 202.882 96.4043 202.882C95.8211 202.882 95.2615 202.65 94.8493 202.238C94.4367 201.825 94.205 201.266 94.205 200.683V194.135C94.2052 193.961 94.1712 193.788 94.1044 193.627C94.0377 193.465 93.94 193.319 93.8163 193.196C93.6927 193.072 93.546 192.975 93.3846 192.908C93.2233 192.842 93.0504 192.808 92.8758 192.809H43.1618C42.9875 192.809 42.8148 192.843 42.6538 192.909C42.4927 192.976 42.3463 193.073 42.2232 193.197C42.0999 193.32 42.0021 193.466 41.9357 193.627C41.8692 193.788 41.8351 193.961 41.8354 194.135V200.68C41.8152 201.25 41.5744 201.79 41.1638 202.186C40.7532 202.582 40.2052 202.803 39.6347 202.803C39.0642 202.803 38.5162 202.582 38.1056 202.186C37.6953 201.79 37.4543 201.25 37.434 200.68V194.135C37.4343 193.961 37.4002 193.788 37.3337 193.627C37.2673 193.466 37.1696 193.32 37.0462 193.197C36.9232 193.073 36.7767 192.976 36.6156 192.909C36.4546 192.843 36.282 192.809 36.1076 192.809H28.3805C27.9153 192.791 27.4751 192.593 27.1524 192.257C26.8297 191.921 26.6495 191.474 26.6495 191.008C26.6495 190.542 26.8297 190.095 27.1524 189.759C27.4751 189.424 27.9153 189.226 28.3805 189.207H102.814C103.752 189.206 104.675 188.969 105.497 188.517C106.32 188.066 107.016 187.415 107.521 186.624C108.026 185.833 108.324 184.927 108.387 183.991C108.45 183.055 108.276 182.118 107.882 181.266L101.482 167.468" stroke="black" stroke-width="3.7" stroke-miterlimit="10"/>
<path d="M128.248 46.7059L127.594 48.4462L127.417 48.9137L127.364 49.0686C127.29 49.2756 127.139 49.4459 126.941 49.5434C126.744 49.6405 126.517 49.6571 126.308 49.5896L121.343 48.0689L113.796 45.7485C113.656 45.7051 113.527 45.633 113.417 45.537C113.306 45.441 113.217 45.3227 113.155 45.1901C113.093 45.0577 113.059 44.9136 113.056 44.7671C113.053 44.621 113.081 44.4754 113.137 44.3405L115.897 37.8017C116.001 37.5601 116.191 37.3658 116.431 37.2565C116.67 37.1472 116.941 37.1309 117.192 37.2103L129.186 40.9979C129.329 41.0412 129.461 41.1147 129.574 41.213C129.687 41.3113 129.777 41.4327 129.84 41.5684C129.903 41.7044 129.935 41.8523 129.937 42.0018C129.938 42.1516 129.908 42.2997 129.847 42.4369" stroke="black" stroke-width="3.7" stroke-miterlimit="10"/>
<path d="M125.764 43.1713L115.089 39.716" stroke="black" stroke-width="3.7" stroke-miterlimit="10"/>
<path d="M138.74 51.4188C138.74 51.4188 134.635 60.3484 130.656 62.4689C130.627 62.4835 130.602 62.5052 130.584 62.5325C130.566 62.5596 130.556 62.5908 130.554 62.6232C130.552 62.6556 130.559 62.6877 130.574 62.7167C130.589 62.7454 130.611 62.7699 130.639 62.7871L149.295 75.1016" stroke="black" stroke-width="3.7" stroke-miterlimit="10"/>
<path d="M130.974 58.4316C130.974 58.4316 128.67 61.7883 130.371 62.6106" stroke="black" stroke-width="3.7" stroke-miterlimit="10"/>
<path d="M132.249 80.3402C132.249 80.3402 131.306 80.3825 133.198 82.7648C135.091 85.1472 135.733 89.681 134.446 92.9222C134.446 92.9222 134.39 93.767 137.758 92.7138C141.125 91.6606 152.939 89.1966 152.939 89.1966C152.939 89.1966 154.783 88.2251 154.212 90.6863C153.64 93.1475 152.522 102.201 151.353 104.811C150.185 107.422 149.047 110.01 153.068 110.99C157.09 111.97 179.026 114.031 179.026 114.031C179.026 114.031 193.951 117.34 193.794 110.486C193.636 103.632 192.54 83.8997 192.54 83.8997C192.54 83.8997 192.63 68.6678 193.636 59.6622C193.636 59.6622 196.26 36.782 188.457 34.6672C180.654 32.5524 178.004 34.8024 176.024 35.8696C174.045 36.9369 156.594 46.058 155.642 64.8746C155.642 64.8746 155.577 72.1456 154.105 73.2298C152.632 74.3139 135.398 80.2755 132.249 80.3402Z" fill="#2E2E2E"/>
<path d="M160.224 200.356L158.253 208.125H134.252C133.725 208.121 133.22 207.914 132.844 207.545C132.592 207.292 132.412 206.976 132.324 206.631C132.235 206.285 132.241 205.922 132.341 205.579C132.44 205.236 132.63 204.927 132.889 204.682C133.149 204.437 133.47 204.267 133.818 204.188L148.202 200.356C148.202 200.356 156.529 203.281 160.224 200.356Z" fill="#2E2E2E"/>
<path d="M188.114 114.461C187.931 114.461 187.739 114.478 187.55 114.478C186.799 119.327 185.964 124.161 185.044 128.978C174.293 126.57 159.438 130.839 159.438 130.839L159.751 132.529C157.301 132.661 156.549 131.757 156.549 131.757L156.008 131.422L157.357 119.519L157.098 118.111V118.066C156.937 117.238 156.785 116.402 156.639 115.574L156.585 115.27C156.371 113.988 156.171 112.701 155.994 111.42L156.171 111.445C156.233 111.445 156.293 111.468 156.363 111.474L156.515 111.499C156.647 111.513 156.777 111.536 156.906 111.552C157.188 111.589 157.551 111.643 157.957 111.704C158.117 111.704 158.286 111.744 158.464 111.775C164.569 112.622 180.474 114.692 188.114 114.461Z" fill="#49C628"/>
<path d="M172.034 153.632L171.998 153.779L160.224 200.356L158.253 208.125H134.252C133.725 208.122 133.22 207.914 132.844 207.545C132.592 207.292 132.412 206.976 132.324 206.631C132.236 206.284 132.241 205.921 132.341 205.578C132.44 205.236 132.63 204.926 132.889 204.681C133.149 204.436 133.47 204.265 133.818 204.186L148.202 200.356L156.008 131.423L157.357 119.519" stroke="black" stroke-width="3.7" stroke-miterlimit="10"/>
<path d="M135.063 89.3993C134.218 89.4388 133.745 89.4472 133.745 89.4472C132.9 89.5063 132.08 89.1853 131.269 88.7488C129.101 87.552 127.023 85.4541 124.939 87.2169C123.59 88.3433 122.478 91.5142 120.248 90.4807C118.302 89.5768 118.378 87.6647 118.699 85.9131C119.099 83.7448 120.853 81.813 122.923 81.4666C125.773 80.9851 128.701 80.9625 131.568 80.4641C137.342 79.4081 142.993 77.7644 148.433 75.5586C154.473 73.1509 161.063 70.67 165.523 65.7251C170.82 59.8706 174.186 52.2082 176.024 44.588" stroke="black" stroke-width="3.7" stroke-miterlimit="10"/>
<path d="M164.887 13.1041C164.887 13.1041 165.414 4.3378 173.597 2.28493C181.78 0.232046 186.663 9.73893 187.032 15.8413C187.401 21.9436 187.032 26.1535 191.332 28.074C191.332 28.074 203.759 27.922 208.338 39.3381C208.338 39.3381 208.958 44.9335 208.704 48.5352C208.451 52.1369 212.945 55.2937 215.392 56.4032C217.84 57.5127 222.097 62.0352 220.94 69.4217C219.783 76.8081 210.121 80.2521 210.121 80.2521C210.121 80.2521 201.864 82.6964 196.885 78.616C191.6 74.2877 193.095 66.3719 193.095 66.3719C193.095 66.3719 195.948 40.6279 190.755 36.3982C187.897 34.0694 186.599 34.2806 184.579 33.0528C182.453 31.7602 181.693 31.3632 180.981 30.4536C179.595 28.671 177.14 25.9789 178.916 19.6288C180.693 13.2787 178.916 16.4805 177.227 15.585C177.227 15.585 175.154 12.386 172.026 14.6473C168.897 16.9085 169.66 11.3919 169.66 11.3919L168.286 13.2392C168.286 13.2392 166.137 13.6701 164.887 13.1041Z" fill="#49C628"/>
<path d="M162.961 16.135C162.885 12.0433 164.411 7.44754 167.59 4.72163C168.022 4.34991 168.486 4.01734 168.976 3.72757C172.411 1.69722 177.185 1.88026 180.603 3.85429C182.421 4.93424 183.938 6.45461 185.013 8.27545L185.041 8.32614C186.366 10.608 187.054 13.2038 187.032 15.8421C187.049 19.272 187.069 23.9269 189.271 26.7739C190.662 28.5761 192.512 28.0693 194.548 28.3762C197.305 28.7904 199.92 29.8678 202.168 31.5161C205.204 33.7492 207.733 37.0805 208.431 40.8427C209.104 44.4641 207.789 48.5473 209.741 51.8956C211.171 54.3427 213.891 55.4607 216.195 56.8884C220.819 59.7889 221.771 65.4097 220.306 70.3546C218.78 75.5107 215.192 78.6788 210.121 80.2585C210.121 80.2585 192.982 84.4826 192.771 69.4619" stroke="black" stroke-width="3.7" stroke-miterlimit="10"/>
<path d="M169.421 11.1334C169.243 12.3387 168.511 13.451 167.207 13.7833C165.737 14.1578 164.955 15.5884 164.544 17.0274C163.955 19.1385 164.107 21.3871 164.974 23.4C165.777 25.2924 167.21 27.4551 169.632 27.8014C174.064 28.4322 176.269 26.5652 176.269 26.5652" stroke="black" stroke-width="3.7" stroke-miterlimit="10"/>
<path d="M173.113 17.5734C173.534 17.5734 173.876 17.2318 173.876 16.8102C173.876 16.3887 173.534 16.0471 173.113 16.0471C172.691 16.0471 172.35 16.3887 172.35 16.8102C172.35 17.2318 172.691 17.5734 173.113 17.5734Z" fill="black"/>
<path d="M166.419 17.073C166.841 17.073 167.182 16.7311 167.182 16.3098C167.182 15.8883 166.841 15.5467 166.419 15.5467C165.997 15.5467 165.656 15.8883 165.656 16.3098C165.656 16.7311 165.997 17.073 166.419 17.073Z" fill="black"/>
<path d="M169.421 11.1334C169.253 11.8577 169.279 12.6132 169.497 13.3243C169.53 13.4395 169.574 13.5515 169.626 13.6594C170.156 14.9013 171.386 15.8925 173.569 15.7686C178.308 15.5067 179.998 15.2054 179.612 17.3822C179.452 18.1524 179.222 18.9065 178.925 19.635C178.404 21.0177 178.041 23.3916 178.576 25.9767C179.192 28.9983 180.657 32.0846 185.593 33.8024" stroke="black" stroke-width="3.7" stroke-miterlimit="10"/>
<path d="M169.835 16.9964C169.835 16.9964 169.035 19.9194 169.117 20.3503C169.198 20.7811 170.221 20.446 170.221 20.446" stroke="black" stroke-width="3.7" stroke-miterlimit="10"/>
<path d="M170.398 23.1246C171.927 23.9497 173.701 23.4287 174.394 22.0489" stroke="black" stroke-width="3.7" stroke-miterlimit="10"/>
<path d="M176.86 19.8445C178.175 18.4511 178.084 16.2293 176.657 14.8821C175.23 13.5347 173.007 13.5721 171.691 14.9652C170.376 16.3586 170.467 18.5804 171.894 19.9276C173.321 21.275 175.545 21.2376 176.86 19.8445Z" stroke="black" stroke-width="3.7" stroke-miterlimit="10"/>
<path d="M167.981 19.0293C169.297 17.6359 169.206 15.4143 167.779 14.0669C166.351 12.7197 164.128 12.7569 162.813 14.1502C161.498 15.5436 161.588 17.7652 163.016 19.1126C164.443 20.4598 166.666 20.4226 167.981 19.0293Z" stroke="black" stroke-width="3.7" stroke-miterlimit="10"/>
<path d="M165.329 14.1581C165.405 14.1539 165.481 14.1539 165.557 14.1581C166.207 14.2181 166.808 14.529 167.233 15.0249C167.658 15.5205 167.873 16.162 167.833 16.8136C167.797 17.4117 167.532 17.973 167.094 18.3819C166.656 18.7905 166.078 19.0155 165.478 19.0101C165.402 19.0101 165.326 19.0101 165.25 19.0101C164.601 18.9484 164.001 18.637 163.576 18.1416C163.152 17.6463 162.936 17.0057 162.975 16.3546C163.011 15.7565 163.275 15.195 163.714 14.7864C164.152 14.3775 164.73 14.1525 165.329 14.1581ZM165.329 13.6371C164.599 13.6332 163.894 13.9089 163.36 14.407C162.825 14.9052 162.501 15.5889 162.454 16.318C162.406 17.1051 162.666 17.88 163.179 18.479C163.692 19.0783 164.417 19.4542 165.202 19.5283C165.295 19.5283 165.388 19.5423 165.484 19.5423C166.215 19.5451 166.919 19.2692 167.454 18.7705C167.988 18.2717 168.312 17.588 168.359 16.8587C168.407 16.0716 168.146 15.2969 167.634 14.6979C167.121 14.0992 166.396 13.7227 165.611 13.6484C165.518 13.6484 165.425 13.6484 165.329 13.6484V13.6371Z" fill="white"/>
<path d="M170.767 17.0814L168.903 16.9096" stroke="black" stroke-width="3.7" stroke-miterlimit="10"/>
<path d="M174.197 14.8984H174.431C175.1 14.9615 175.719 15.282 176.157 15.7928C176.594 16.3033 176.817 16.9643 176.776 17.6356C176.736 18.2501 176.462 18.8259 176.011 19.2447C175.559 19.6637 174.965 19.8941 174.349 19.8884C174.27 19.8884 174.194 19.8884 174.115 19.8884C173.446 19.8253 172.827 19.5046 172.389 18.9938C171.951 18.4832 171.729 17.8226 171.769 17.1513C171.809 16.5365 172.083 15.9601 172.534 15.5411C172.986 15.122 173.581 14.892 174.197 14.8984ZM174.197 14.3775C173.447 14.3721 172.723 14.654 172.174 15.1648C171.625 15.6757 171.292 16.3774 171.243 17.1259C171.194 17.9321 171.46 18.726 171.986 19.3399C172.511 19.9535 173.255 20.339 174.059 20.415C174.155 20.415 174.248 20.4291 174.34 20.4291C175.089 20.4319 175.812 20.1489 176.359 19.6375C176.906 19.1264 177.238 18.4252 177.286 17.6778C177.339 16.8702 177.074 16.0741 176.548 15.4594C176.022 14.8447 175.276 14.4605 174.47 14.3887C174.374 14.3887 174.281 14.3887 174.188 14.3887L174.197 14.3775Z" fill="white"/>
<path d="M167.615 18.6835C168.743 17.4881 168.665 15.5816 167.44 14.4256C166.216 13.2694 164.308 13.3012 163.179 14.4966C162.051 15.692 162.129 17.5982 163.354 18.7544C164.579 19.9107 166.486 19.8789 167.615 18.6835Z" fill="#49C628"/>
<path d="M176.506 19.5066C177.64 18.3056 177.562 16.3904 176.331 15.2288C175.101 14.0672 173.184 14.0993 172.05 15.3003C170.917 16.5013 170.995 18.4165 172.225 19.5781C173.456 20.7397 175.373 20.7076 176.506 19.5066Z" fill="#49C628"/>
<path d="M173.113 37.308L172.076 32.8249L170.95 27.9898" stroke="black" stroke-width="3.7" stroke-miterlimit="10"/>
<path d="M223.134 188.205L206.694 207.424C206.368 207.807 205.91 208.053 205.411 208.113C204.912 208.173 204.409 208.043 204.002 207.748L203.551 207.419C203.173 207.143 202.903 206.744 202.789 206.29C202.674 205.837 202.721 205.357 202.923 204.935L209.383 191.491C209.383 191.491 219.661 191.787 219.577 182.26C221.906 187.073 223.134 188.205 223.134 188.205Z" fill="#2E2E2E"/>
<path d="M195.351 175.974L195.235 175.859L190.913 171.75L190.704 171.559L172.648 154.381V154.364L172.623 154.342L172.012 153.778L166.523 148.56C163.517 145.698 161.495 141.958 160.745 137.876L159.751 132.548L159.435 130.859L157.357 119.547L157.098 118.139V118.094C156.937 117.266 156.785 116.429 156.639 115.602L156.585 115.297" stroke="black" stroke-width="3.7" stroke-miterlimit="10"/>
<path d="M155.986 111.429C156.163 112.71 156.363 113.997 156.577 115.278L156.63 115.582C156.777 116.41 156.929 117.247 157.089 118.075V118.12" stroke="black" stroke-width="3.7" stroke-linejoin="round"/>
<path d="M172.606 154.353L172.629 154.376L172.646 154.394" stroke="black" stroke-width="3.7" stroke-linejoin="round"/>
<path d="M190.702 171.559L190.91 171.75C192.472 173.215 193.913 174.585 195.232 175.859L195.345 175.974C212.661 192.704 209.38 191.491 209.38 191.491L202.917 204.934C202.717 205.357 202.67 205.837 202.785 206.29C202.9 206.744 203.17 207.143 203.548 207.418L203.999 207.748C204.406 208.042 204.909 208.173 205.408 208.113C205.907 208.053 206.365 207.807 206.691 207.424L223.128 188.204C223.128 188.204 221.903 187.078 219.574 182.26C213.979 170.663 202.03 149.265 185.582 138.113C184.97 137.702 184.493 137.119 184.212 136.438C183.931 135.756 183.858 135.006 184.002 134.283C184.318 132.757 184.616 131.231 184.909 129.699C184.954 129.462 184.999 129.223 185.038 128.986C185.957 124.165 186.792 119.332 187.545 114.487" stroke="black" stroke-width="3.7" stroke-linejoin="round"/>
<path d="M154.91 72.869C155.163 69.2082 155.473 65.8938 155.808 63.013C155.853 62.5765 155.907 62.1456 155.952 61.7232C156.639 55.4463 160.043 49.7805 164.231 45.1876C168.37 40.6481 173.639 36.2354 179.618 34.4473C181.544 33.8404 183.571 33.6213 185.582 33.8024C186.962 33.9685 188.282 34.4675 189.426 35.2569C190.571 36.0462 191.506 37.1022 192.152 38.3334C192.953 39.9075 193.465 41.6129 193.661 43.3684C193.661 43.3909 193.661 43.4135 193.661 43.4388C194.013 46.2548 193.813 49.2088 193.844 52.0052C193.898 57.8399 193.399 63.6635 192.754 69.4645" stroke="black" stroke-width="3.7" stroke-linejoin="round"/>
<path d="M154.409 87.4615V87.4529" stroke="black" stroke-width="3.7" stroke-linejoin="round"/>
<path d="M131.576 80.4526C134.243 83.5727 135.905 88.1262 134.761 92.1982C134.48 93.1641 133.46 94.4735 132.534 93.2824C132.3 92.9453 132.143 92.5606 132.075 92.156C131.813 91.0098 131.469 89.8834 131.269 88.7204" stroke="black" stroke-width="3.7" stroke-miterlimit="10"/>
<path d="M133.624 93.7442C155.406 87.9883 186.249 86.0396 192.892 55.6716C193.762 51.6281 194.022 47.4773 193.664 43.3571" stroke="black" stroke-width="3.7" stroke-miterlimit="10"/>
<path d="M154.347 88.8333C153.916 96.0987 151.64 104.04 150.385 107.982C150.286 108.288 150.256 108.611 150.294 108.93C150.334 109.249 150.441 109.555 150.61 109.828C150.779 110.102 151.005 110.335 151.273 110.512C151.541 110.689 151.844 110.806 152.161 110.855C153.189 111.015 154.49 111.207 155.986 111.418L156.163 111.443C156.225 111.443 156.284 111.466 156.355 111.471L156.507 111.497C156.639 111.511 156.768 111.533 156.898 111.55C157.236 111.604 157.588 111.649 157.948 111.702C158.109 111.702 158.278 111.742 158.455 111.773C167.185 113.012 180.189 114.631 187.548 114.47C187.739 114.47 187.931 114.47 188.111 114.453L188.674 114.431L189.22 114.4C191.231 114.254 192.6 113.91 192.991 113.305C195.525 109.472 190.823 87.445 193.075 66.3615" stroke="black" stroke-width="3.7" stroke-miterlimit="10"/>
<path d="M212.928 208.128H6.73091" stroke="black" stroke-width="3.7" stroke-linejoin="round"/>
<path d="M16.2857 143.56C16.2857 143.56 -11.6352 176.308 16.2857 207.788" stroke="#D7E8F0" stroke-width="3.7" stroke-miterlimit="10"/>
</svg>
